<svg version="1.2" xmlns="http://www.w3.org/2000/svg" viewBox="0 0 140 43" width="140" height="43"><style>.a{fill:#fefefe}.b{fill:#f90}</style><path class="a" d="m4.3 14.5h1.5q1.1 0 1.6-0.5 0.5-0.4 0.5-1.5 0-1-0.5-1.5-0.5-0.4-1.6-0.4h-1.5zm1 2.7h-1v5.8h-3.6v-15.3h5.5q2.7 0 3.9 1 1.3 1 1.3 3.2 0 1.5-0.6 2.5-0.7 1-2 1.4 0.7 0.2 1.3 0.9 0.6 0.6 1.1 1.9l2 4.4h-3.8l-1.7-3.8q-0.5-1.2-1-1.6-0.5-0.4-1.4-0.4zm16.2 0.6h-1.7q-1.1 0-1.6 0.4-0.5 0.4-0.5 1.1 0 0.7 0.4 1.1 0.4 0.4 1.2 0.4 0.9 0 1.6-0.7 0.6-0.8 0.6-1.9zm3.3-1.4v6.6h-3.3v-1.7q-0.7 1-1.5 1.5-0.8 0.5-2 0.5-1.6 0-2.6-1-1-1.1-1-2.8 0-2 1.2-2.9 1.3-1 3.9-1h2v-0.2q0-0.9-0.6-1.3-0.7-0.4-2-0.4-1 0-1.9 0.2-0.9 0.2-1.7 0.7v-2.8q1-0.3 2.1-0.4 1.1-0.2 2.1-0.2 2.8 0 4.1 1.3 1.2 1.2 1.2 3.9zm3.1 6.6v-16h3.3v8.7l3.8-4.2h3.8l-5 5.3 5.4 6.2h-4l-4-4.8v4.8zm12.5 0v-11.5h3.3v11.5zm0-13v-3h3.4v3zm11.9 10.6q1.1 0 1.6-0.8 0.6-0.9 0.6-2.5 0-1.7-0.6-2.5-0.5-0.9-1.6-0.9-1 0-1.6 0.9-0.6 0.8-0.6 2.5 0 1.6 0.6 2.5 0.6 0.8 1.6 0.8zm-2.2-13.6v6.2q0.7-1 1.5-1.5 0.9-0.5 1.9-0.5 2 0 3.2 1.7 1.2 1.7 1.2 4.4 0 2.6-1.2 4.3-1.2 1.7-3.2 1.7-1 0-1.9-0.5-0.8-0.5-1.5-1.5v1.7h-3.3v-16zm9.7 11.4v-2.9h5.8v2.9zm17.8 4.6l-0.9-2.8h-5.6l-0.8 2.8h-3.6l5.1-15.3h4.2l5.1 15.3zm-3.6-11.7l-1.9 6.1h3.8zm19.2 4.7v7h-3.3v-1.2-4.2q0-1.5 0-2-0.1-0.6-0.2-0.8-0.2-0.4-0.6-0.6-0.3-0.2-0.7-0.2-1.1 0-1.7 0.9-0.5 0.9-0.5 2.4v5.7h-3.3v-11.5h3.3v1.7q0.7-1 1.6-1.5 0.8-0.5 1.8-0.5 1.8 0 2.7 1.2 0.9 1.3 0.9 3.6zm3.3 7v-15.3h3.9l5 10.5v-10.5h3.4v15.3h-4l-5-10.5v10.5zm15.7 0v-11.5h3.3v11.5zm0-13v-3h3.3v3zm14.5 1.9v2.7q-1-0.4-2-0.7-1-0.2-1.9-0.2-0.9 0-1.4 0.2-0.4 0.3-0.4 0.8 0 0.5 0.3 0.7 0.4 0.2 1.3 0.4h0.5q2.6 0.4 3.5 1.2 0.8 0.8 0.8 2.6 0 1.8-1.2 2.8-1.2 0.9-3.6 0.9-1 0-2.1-0.2-1.1-0.2-2.3-0.5v-2.8q1 0.5 2 0.8 1.1 0.2 2.2 0.2 0.9 0 1.4-0.3 0.5-0.3 0.5-0.8 0-0.5-0.3-0.8-0.4-0.2-1.4-0.3l-0.6-0.1q-2.2-0.3-3.1-1.2-0.8-0.8-0.8-2.5 0-1.8 1.1-2.7 1.1-0.9 3.4-0.9 1 0 2 0.2 1 0.1 2.1 0.5zm9.6 5.9h-1.7q-1.1 0-1.6 0.4-0.5 0.4-0.5 1.2 0 0.7 0.4 1.1 0.4 0.3 1.2 0.3 0.9 0 1.5-0.7 0.7-0.7 0.7-1.9zm3.3-1.3v6.5h-3.3v-1.7q-0.7 1-1.5 1.5-0.9 0.5-2 0.5-1.7 0-2.7-1-1-1.1-1-2.7 0-2.1 1.3-3 1.2-0.9 3.9-0.9h2v-0.3q0-0.9-0.7-1.3-0.6-0.4-1.9-0.4-1 0-2 0.2-0.9 0.3-1.7 0.7v-2.8q1.1-0.3 2.2-0.4 1.1-0.2 2.1-0.2 2.8 0 4.1 1.3 1.2 1.2 1.2 4z"/><path fill-rule="evenodd" class="b" d="m86.4 37.3c-6.3 3.4-15.5 5.2-23.5 5.2-11.1 0-21.1-3-28.6-8-0.6-0.4-0.1-0.9 0.6-0.6 8.2 3.5 18.3 5.5 28.7 5.5 7 0 14.8-1 21.9-3.2 1.1-0.3 2 0.5 0.9 1.1z"/><path fill-rule="evenodd" class="b" d="m89.1 35.1c-0.8-0.8-5.4-0.4-7.4-0.2-0.7 0.1-0.8-0.3-0.2-0.6 3.6-1.9 9.6-1.3 10.3-0.7 0.7 0.6-0.2 4.9-3.6 7-0.5 0.3-1 0.1-0.8-0.3 0.8-1.4 2.5-4.5 1.7-5.2z"/></svg>